<svg xmlns="http://www.w3.org/2000/svg" width="1536" height="1024" viewBox="0 0 1536 1024">
  <defs>
    <radialGradient id="a" cx="22%" cy="18%" r="62%">
      <stop offset="0" stop-color="#4fc3f7" stop-opacity=".5"/>
      <stop offset=".42" stop-color="#4fc3f7" stop-opacity=".12"/>
      <stop offset="1" stop-color="#0d1117" stop-opacity="0"/>
    </radialGradient>
    <radialGradient id="b" cx="78%" cy="74%" r="58%">
      <stop offset="0" stop-color="#e8643a" stop-opacity=".42"/>
      <stop offset=".46" stop-color="#e8643a" stop-opacity=".1"/>
      <stop offset="1" stop-color="#0d1117" stop-opacity="0"/>
    </radialGradient>
    <linearGradient id="c" x1="0" x2="1" y1="0" y2="1">
      <stop offset="0" stop-color="#0d1117"/>
      <stop offset=".55" stop-color="#161c27"/>
      <stop offset="1" stop-color="#10151f"/>
    </linearGradient>
  </defs>
  <rect width="1536" height="1024" fill="url(#c)"/>
  <rect width="1536" height="1024" fill="url(#a)"/>
  <rect width="1536" height="1024" fill="url(#b)"/>
  <g fill="none" stroke="#4fc3f7" stroke-opacity=".24" stroke-width="2">
    <path d="M140 260 C 380 130, 560 300, 770 210 S 1120 130, 1380 270"/>
    <path d="M120 520 C 410 390, 640 600, 870 490 S 1190 420, 1430 550"/>
    <path d="M220 780 C 480 650, 700 820, 930 720 S 1200 680, 1400 790"/>
  </g>
  <g fill="#4fc3f7" opacity=".72">
    <circle cx="220" cy="235" r="5"/>
    <circle cx="510" cy="252" r="4"/>
    <circle cx="780" cy="211" r="6"/>
    <circle cx="1105" cy="167" r="5"/>
    <circle cx="1326" cy="244" r="6"/>
    <circle cx="332" cy="459" r="5"/>
    <circle cx="642" cy="563" r="4"/>
    <circle cx="900" cy="482" r="6"/>
    <circle cx="1238" cy="475" r="5"/>
  </g>
  <g fill="#e8643a" opacity=".7">
    <circle cx="290" cy="760" r="5"/>
    <circle cx="570" cy="693" r="4"/>
    <circle cx="928" cy="719" r="6"/>
    <circle cx="1250" cy="710" r="4"/>
  </g>
</svg>
