<svg xmlns="http://www.w3.org/2000/svg" width="1536" height="1024" viewBox="0 0 1536 1024">
  <defs>
    <linearGradient id="bg" x1="0" x2="1" y1="0" y2="1">
      <stop offset="0" stop-color="#0d1117"/>
      <stop offset=".52" stop-color="#171b25"/>
      <stop offset="1" stop-color="#111923"/>
    </linearGradient>
    <radialGradient id="glowA" cx="18%" cy="70%" r="55%">
      <stop offset="0" stop-color="#81c784" stop-opacity=".25"/>
      <stop offset=".48" stop-color="#81c784" stop-opacity=".06"/>
      <stop offset="1" stop-color="#0d1117" stop-opacity="0"/>
    </radialGradient>
    <radialGradient id="glowB" cx="78%" cy="24%" r="52%">
      <stop offset="0" stop-color="#4fc3f7" stop-opacity=".34"/>
      <stop offset=".48" stop-color="#4fc3f7" stop-opacity=".07"/>
      <stop offset="1" stop-color="#0d1117" stop-opacity="0"/>
    </radialGradient>
  </defs>
  <rect width="1536" height="1024" fill="url(#bg)"/>
  <rect width="1536" height="1024" fill="url(#glowA)"/>
  <rect width="1536" height="1024" fill="url(#glowB)"/>
  <g fill="none" stroke="#4fc3f7" stroke-opacity=".18" stroke-width="3">
    <rect x="250" y="250" width="220" height="120" rx="18"/>
    <rect x="658" y="452" width="220" height="120" rx="18"/>
    <rect x="1066" y="250" width="220" height="120" rx="18"/>
    <rect x="1066" y="654" width="220" height="120" rx="18"/>
    <path d="M470 310C560 310 560 512 658 512"/>
    <path d="M878 512C980 512 970 310 1066 310"/>
    <path d="M878 512C980 512 970 714 1066 714"/>
  </g>
  <g fill="#e8643a" opacity=".72">
    <circle cx="470" cy="310" r="5"/>
    <circle cx="658" cy="512" r="5"/>
    <circle cx="878" cy="512" r="5"/>
    <circle cx="1066" cy="310" r="5"/>
    <circle cx="1066" cy="714" r="5"/>
  </g>
</svg>
