<svg xmlns="http://www.w3.org/2000/svg" width="1536" height="1024" viewBox="0 0 1536 1024">
  <defs>
    <linearGradient id="bg" x1="0" x2="1" y1="0" y2="1">
      <stop offset="0" stop-color="#0d1117"/>
      <stop offset=".58" stop-color="#141d27"/>
      <stop offset="1" stop-color="#10151f"/>
    </linearGradient>
    <radialGradient id="cyan" cx="26%" cy="28%" r="55%">
      <stop offset="0" stop-color="#4fc3f7" stop-opacity=".36"/>
      <stop offset=".44" stop-color="#4fc3f7" stop-opacity=".08"/>
      <stop offset="1" stop-color="#0d1117" stop-opacity="0"/>
    </radialGradient>
    <radialGradient id="orange" cx="80%" cy="74%" r="48%">
      <stop offset="0" stop-color="#e8643a" stop-opacity=".28"/>
      <stop offset=".5" stop-color="#e8643a" stop-opacity=".06"/>
      <stop offset="1" stop-color="#0d1117" stop-opacity="0"/>
    </radialGradient>
  </defs>
  <rect width="1536" height="1024" fill="url(#bg)"/>
  <rect width="1536" height="1024" fill="url(#cyan)"/>
  <rect width="1536" height="1024" fill="url(#orange)"/>
  <g fill="none" stroke="#4fc3f7" stroke-width="2" stroke-opacity=".2">
    <path d="M170 300H510C625 300 665 408 780 408H1360"/>
    <path d="M170 500H610C720 500 746 615 860 615H1360"/>
    <path d="M170 700H490C650 700 702 292 880 292H1360"/>
  </g>
  <g fill="#4fc3f7" opacity=".62">
    <circle cx="170" cy="300" r="5"/>
    <circle cx="510" cy="300" r="4"/>
    <circle cx="780" cy="408" r="5"/>
    <circle cx="1220" cy="408" r="4"/>
    <circle cx="170" cy="500" r="5"/>
    <circle cx="610" cy="500" r="4"/>
    <circle cx="860" cy="615" r="5"/>
    <circle cx="170" cy="700" r="5"/>
    <circle cx="490" cy="700" r="4"/>
    <circle cx="880" cy="292" r="5"/>
  </g>
  <g fill="#e8643a" opacity=".7">
    <circle cx="1360" cy="408" r="6"/>
    <circle cx="1360" cy="615" r="6"/>
    <circle cx="1360" cy="292" r="6"/>
  </g>
</svg>
